<?xml version="1.0" encoding="UTF-8" standalone="no"?>
<!-- Created with Inkscape (http://www.inkscape.org/) -->

<svg
   version="1.1"
   id="svg2"
   width="1333.3333"
   height="1333.3333"
   viewBox="0 0 1333.3333 1333.3333"
   sodipodi:docname="EndlessByte.ai"
   xmlns:inkscape="http://www.inkscape.org/namespaces/inkscape"
   xmlns:sodipodi="http://sodipodi.sourceforge.net/DTD/sodipodi-0.dtd"
   xmlns="http://www.w3.org/2000/svg"
   xmlns:svg="http://www.w3.org/2000/svg">
  <defs
     id="defs6">
    <clipPath
       clipPathUnits="userSpaceOnUse"
       id="clipPath18">
      <path
         d="M 0,1000 H 1000 V 0 H 0 Z"
         id="path16" />
    </clipPath>
    <clipPath
       clipPathUnits="userSpaceOnUse"
       id="clipPath26">
      <path
         d="M 152.17,887.919 H 801.405 V 35.2109 H 152.17 Z"
         id="path24" />
    </clipPath>
    <clipPath
       clipPathUnits="userSpaceOnUse"
       id="clipPath30">
      <path
         d="M 629.209,607.372 H 747.117 V 468.454 H 629.209 Z"
         id="path28" />
    </clipPath>
    <clipPath
       clipPathUnits="userSpaceOnUse"
       id="clipPath34">
      <path
         d="M 629.787,620.07 H 754.114 V 466.046 H 629.787 Z"
         id="path32" />
    </clipPath>
    <clipPath
       clipPathUnits="userSpaceOnUse"
       id="clipPath38">
      <path
         d="M 630.337,633.471 H 760.663 V 463.507 H 630.337 Z"
         id="path36" />
    </clipPath>
    <clipPath
       clipPathUnits="userSpaceOnUse"
       id="clipPath42">
      <path
         d="M 630.879,647.563 H 766.727 V 460.822 H 630.879 Z"
         id="path40" />
    </clipPath>
    <clipPath
       clipPathUnits="userSpaceOnUse"
       id="clipPath46">
      <path
         d="M 631.429,662.338 H 772.273 V 457.978 H 631.429 Z"
         id="path44" />
    </clipPath>
    <clipPath
       clipPathUnits="userSpaceOnUse"
       id="clipPath50">
      <path
         d="M 632.008,677.785 H 777.267 V 454.962 H 632.008 Z"
         id="path48" />
    </clipPath>
    <clipPath
       clipPathUnits="userSpaceOnUse"
       id="clipPath54">
      <path
         d="M 632.634,693.89 H 781.676 V 451.76 H 632.634 Z"
         id="path52" />
    </clipPath>
    <clipPath
       clipPathUnits="userSpaceOnUse"
       id="clipPath58">
      <path
         d="m 633.327,710.641 h 152.14 V 448.362 h -152.14 z"
         id="path56" />
    </clipPath>
    <clipPath
       clipPathUnits="userSpaceOnUse"
       id="clipPath62">
      <path
         d="M 634.106,728.025 H 788.607 V 444.756 H 634.106 Z"
         id="path60" />
    </clipPath>
    <clipPath
       clipPathUnits="userSpaceOnUse"
       id="clipPath66">
      <path
         d="M 634.991,746.027 H 791.066 V 440.931 H 634.991 Z"
         id="path64" />
    </clipPath>
    <clipPath
       clipPathUnits="userSpaceOnUse"
       id="clipPath70">
      <path
         d="M 636.001,764.631 H 792.812 V 436.877 H 636.001 Z"
         id="path68" />
    </clipPath>
    <clipPath
       clipPathUnits="userSpaceOnUse"
       id="clipPath74">
      <path
         d="M 637.158,783.821 H 793.815 V 432.584 H 637.158 Z"
         id="path72" />
    </clipPath>
    <clipPath
       clipPathUnits="userSpaceOnUse"
       id="clipPath78">
      <path
         d="M 638.481,803.579 H 794.045 V 428.044 H 638.481 Z"
         id="path76" />
    </clipPath>
    <clipPath
       clipPathUnits="userSpaceOnUse"
       id="clipPath82">
      <path
         d="M 639.991,823.888 H 793.475 V 423.247 H 639.991 Z"
         id="path80" />
    </clipPath>
    <clipPath
       clipPathUnits="userSpaceOnUse"
       id="clipPath86">
      <path
         d="M 641.709,844.728 H 792.075 V 418.186 H 641.709 Z"
         id="path84" />
    </clipPath>
    <clipPath
       clipPathUnits="userSpaceOnUse"
       id="clipPath90">
      <path
         d="M 643.654,866.08 H 789.818 V 412.855 H 643.654 Z"
         id="path88" />
    </clipPath>
    <clipPath
       clipPathUnits="userSpaceOnUse"
       id="clipPath94">
      <path
         d="M 152.17,887.919 H 801.405 V 35.2109 H 152.17 Z"
         id="path92" />
    </clipPath>
    <clipPath
       clipPathUnits="userSpaceOnUse"
       id="clipPath384">
      <path
         d="M 0,1000 H 1000 V 0 H 0 Z"
         id="path382" />
    </clipPath>
  </defs>
  <sodipodi:namedview
     id="namedview4"
     pagecolor="#ffffff"
     bordercolor="#000000"
     borderopacity="0.25"
     inkscape:showpageshadow="2"
     inkscape:pageopacity="0.0"
     inkscape:pagecheckerboard="0"
     inkscape:deskcolor="#d1d1d1" />
  <g
     id="g8"
     inkscape:groupmode="layer"
     inkscape:label="EndlessByte"
     transform="matrix(1.3333333,0,0,-1.3333333,0,1333.3333)">
    <path
       d="M 0,0 H 1000 V 1000 H 0 Z"
       style="fill:#ffffff;fill-opacity:1;fill-rule:nonzero;stroke:none"
       id="path10" />
    <g
       id="g12">
      <g
         id="g14"
         clip-path="url(#clipPath18)">
        <g
           id="g20">
          <g
             id="g22" />
          <g
             id="g368">
            <g
               clip-path="url(#clipPath26)"
               id="g366">
              <g
                 transform="translate(353.9824,585.1927)"
                 id="g98">
                <path
                   d="m 0,0 c -25.657,18.668 -36.576,35.77 -32.386,51.344 4.19,15.574 22.214,24.889 53.777,28.163 31.558,3.274 67.494,-0.442 108.109,-11.369 40.61,-10.926 73.562,-25.744 99.218,-44.412 25.657,-18.668 36.576,-35.771 32.386,-51.345 -4.191,-15.575 -22.22,-24.888 -53.777,-28.162 -31.563,-3.275 -67.499,0.443 -108.109,11.369 C 58.604,-33.484 25.657,-18.668 0,0 Z m 177.298,-5.071 c 1.782,6.625 -2.864,13.965 -13.928,22.018 -11.069,8.052 -25.241,14.404 -42.517,19.052 -17.281,4.65 -32.726,6.266 -46.337,4.854 C 60.9,39.441 53.203,35.422 51.421,28.796 49.638,22.17 54.278,14.831 65.348,6.779 c 11.064,-8.053 25.237,-14.403 42.517,-19.052 17.276,-4.648 32.722,-6.267 46.337,-4.855 13.611,1.412 21.313,5.431 23.096,12.057 z"
                   style="fill:none;stroke:#c0c0c0;stroke-width:3.118;stroke-linecap:butt;stroke-linejoin:miter;stroke-miterlimit:10;stroke-dasharray:none;stroke-opacity:1"
                   id="path96" />
              </g>
              <g
                 id="g110">
                <g
                   id="g100" />
                <g
                   id="g108">
                  <g
                     clip-path="url(#clipPath30)"
                     id="g106">
                    <g
                       transform="translate(661.4003,605.4617)"
                       id="g104">
                      <path
                         d="m 0,0 83.806,-22.548 -30.281,-112.55 -83.806,22.548 z"
                         style="fill:none;stroke:#c0c0c0;stroke-width:3.118;stroke-linecap:butt;stroke-linejoin:miter;stroke-miterlimit:10;stroke-dasharray:none;stroke-opacity:1"
                         id="path102" />
                    </g>
                  </g>
                </g>
              </g>
              <g
                 transform="translate(342.6411,582.8776)"
                 id="g114">
                <path
                   d="m 0,0 c -26.984,20.044 -38.445,38.885 -33.993,56.585 4.451,17.698 23.46,28.878 56.718,33.771 33.252,4.892 71.101,2.08 113.86,-8.674 C 179.339,70.929 214.017,55.501 241,35.458 c 26.983,-20.044 38.444,-38.888 33.993,-56.586 -4.452,-17.7 -23.467,-28.878 -56.719,-33.77 -33.257,-4.893 -71.105,-2.079 -113.859,8.674 C 61.656,-35.47 26.983,-20.043 0,0 Z m 186.762,1.063 c 1.893,7.529 -2.984,15.618 -14.619,24.264 -11.642,8.645 -26.556,15.257 -44.744,19.831 -18.193,4.576 -34.461,5.807 -48.803,3.696 C 64.249,46.744 56.132,41.923 54.238,34.394 52.344,26.863 57.215,18.776 68.857,10.131 80.493,1.485 95.408,-5.125 113.601,-9.701 c 18.188,-4.574 34.455,-5.807 48.802,-3.696 14.341,2.11 22.465,6.929 24.359,14.46 z"
                   style="fill:none;stroke:#b4b4b4;stroke-width:3.235;stroke-linecap:butt;stroke-linejoin:miter;stroke-miterlimit:10;stroke-dasharray:none;stroke-opacity:1"
                   id="path112" />
              </g>
              <g
                 id="g126">
                <g
                   id="g116" />
                <g
                   id="g124">
                  <g
                     clip-path="url(#clipPath34)"
                     id="g122">
                    <g
                       transform="translate(663.9197,618.1072)"
                       id="g120">
                      <path
                         d="M 0,0 88.231,-22.191 56.062,-150.097 -32.17,-127.906 Z"
                         style="fill:none;stroke:#b4b4b4;stroke-width:3.235;stroke-linecap:butt;stroke-linejoin:miter;stroke-miterlimit:10;stroke-dasharray:none;stroke-opacity:1"
                         id="path118" />
                    </g>
                  </g>
                </g>
              </g>
              <g
                 transform="translate(331.6355,579.9227)"
                 id="g130">
                <path
                   d="m 0,0 c -28.291,21.458 -40.304,42.128 -35.63,62.094 4.673,19.963 24.612,33.154 59.491,39.824 34.872,6.669 74.562,4.883 119.4,-5.614 44.832,-10.496 81.193,-26.513 109.483,-47.971 28.291,-21.457 40.304,-42.131 35.631,-62.094 -4.674,-19.965 -24.619,-33.155 -59.491,-39.824 -34.879,-6.67 -74.568,-4.881 -119.4,5.615 C 64.647,-37.473 28.291,-21.458 0,0 Z m 195.855,7.9 c 1.988,8.492 -3.124,17.368 -15.323,26.624 -12.206,9.255 -27.844,16.117 -46.916,20.582 -19.078,4.467 -36.137,5.259 -51.177,2.383 C 67.392,54.611 58.878,48.926 56.89,40.433 54.901,31.939 60.007,23.064 72.213,13.809 c 12.2,-9.256 27.838,-16.116 46.916,-20.582 19.072,-4.465 36.13,-5.26 51.177,-2.383 15.04,2.876 23.56,8.561 25.549,17.056 z"
                   style="fill:none;stroke:#a8a8a8;stroke-width:3.353;stroke-linecap:butt;stroke-linejoin:miter;stroke-miterlimit:10;stroke-dasharray:none;stroke-opacity:1"
                   id="path128" />
              </g>
              <g
                 id="g142">
                <g
                   id="g132" />
                <g
                   id="g140">
                  <g
                     clip-path="url(#clipPath38)"
                     id="g138">
                    <g
                       transform="translate(666.1285,631.4563)"
                       id="g136">
                      <path
                         d="m 0,0 92.52,-21.66 -33.777,-144.275 -92.52,21.661 z"
                         style="fill:none;stroke:#a8a8a8;stroke-width:3.353;stroke-linecap:butt;stroke-linejoin:miter;stroke-miterlimit:10;stroke-dasharray:none;stroke-opacity:1"
                         id="path134" />
                    </g>
                  </g>
                </g>
              </g>
              <g
                 transform="translate(320.9908,576.3404)"
                 id="g146">
                <path
                   d="m 0,0 c -29.582,22.913 -42.161,45.503 -37.311,67.873 4.851,22.367 25.655,37.719 62.074,46.321 36.413,8.601 77.87,7.958 124.717,-2.201 46.842,-10.157 84.845,-26.745 114.426,-49.658 29.582,-22.913 42.161,-45.506 37.311,-67.873 -4.851,-22.37 -25.662,-37.72 -62.074,-46.321 -36.419,-8.602 -77.876,-7.957 -124.717,2.201 C 67.579,-39.499 29.582,-22.913 0,0 Z m 204.55,15.425 c 2.064,9.515 -3.289,19.216 -16.046,29.1 -12.763,9.883 -29.107,16.988 -49.033,21.309 C 119.538,70.156 101.719,70.46 86.015,66.75 70.304,63.039 61.42,56.426 59.356,46.91 57.292,37.392 62.639,27.692 75.402,17.81 88.159,7.926 104.503,0.824 124.436,-3.498 c 19.927,-4.322 37.745,-4.628 53.455,-0.917 15.705,3.709 24.595,10.322 26.659,19.84 z"
                   style="fill:none;stroke:#9c9c9c;stroke-width:3.471;stroke-linecap:butt;stroke-linejoin:miter;stroke-miterlimit:10;stroke-dasharray:none;stroke-opacity:1"
                   id="path144" />
              </g>
              <g
                 id="g158">
                <g
                   id="g148" />
                <g
                   id="g156">
                  <g
                     clip-path="url(#clipPath42)"
                     id="g154">
                    <g
                       transform="translate(667.9968,645.4998)"
                       id="g152">
                      <path
                         d="m 0,0 96.667,-20.962 -35.055,-161.652 -96.667,20.963 z"
                         style="fill:none;stroke:#9c9c9c;stroke-width:3.471;stroke-linecap:butt;stroke-linejoin:miter;stroke-miterlimit:10;stroke-dasharray:none;stroke-opacity:1"
                         id="path150" />
                    </g>
                  </g>
                </g>
              </g>
              <g
                 transform="translate(310.7318,572.1436)"
                 id="g162">
                <path
                   d="m 0,0 c -30.86,24.412 -44.024,49.011 -39.049,73.925 4.975,24.911 26.576,42.568 64.448,53.255 37.866,10.685 81.013,11.302 129.798,1.559 48.78,-9.742 88.383,-26.883 119.243,-51.296 30.859,-24.412 44.024,-49.014 39.049,-73.925 -4.976,-24.913 -26.583,-42.569 -64.449,-53.255 -37.873,-10.687 -81.018,-11.3 -129.798,-1.558 C 70.456,-41.552 30.86,-24.413 0,0 Z M 212.821,23.623 C 214.938,34.22 209.335,44.786 196.028,55.317 182.714,65.846 165.682,73.186 144.93,77.33 124.173,81.476 105.628,81.241 89.297,76.632 72.959,72.022 63.735,64.418 61.618,53.82 59.501,43.22 65.097,32.655 78.411,22.126 91.719,11.596 108.752,4.259 129.509,0.113 c 20.752,-4.144 39.296,-3.912 55.633,0.698 16.331,4.608 25.562,12.212 27.679,22.812 z"
                   style="fill:none;stroke:#909090;stroke-width:3.588;stroke-linecap:butt;stroke-linejoin:miter;stroke-miterlimit:10;stroke-dasharray:none;stroke-opacity:1"
                   id="path160" />
              </g>
              <g
                 id="g174">
                <g
                   id="g164" />
                <g
                   id="g172">
                  <g
                     clip-path="url(#clipPath46)"
                     id="g170">
                    <g
                       transform="translate(669.4952,660.2277)"
                       id="g168">
                      <path
                         d="M 0,0 100.667,-20.105 64.712,-200.139 -35.955,-180.034 Z"
                         style="fill:none;stroke:#909090;stroke-width:3.588;stroke-linecap:butt;stroke-linejoin:miter;stroke-miterlimit:10;stroke-dasharray:none;stroke-opacity:1"
                         id="path166" />
                    </g>
                  </g>
                </g>
              </g>
              <g
                 transform="translate(300.8828,567.3461)"
                 id="g178">
                <path
                   d="m 0,0 c -32.128,25.957 -45.901,52.655 -40.86,80.251 5.041,27.593 27.362,47.7 66.595,60.622 39.227,12.919 83.979,14.908 134.63,5.654 50.645,-9.252 91.807,-26.933 123.934,-52.89 C 316.426,67.68 330.2,40.978 325.159,13.385 320.118,-14.211 297.79,-34.316 258.564,-47.236 219.33,-60.158 174.579,-62.142 123.934,-52.89 73.283,-43.637 32.128,-25.957 0,0 Z m 220.642,32.479 c 2.144,11.738 -3.718,23.207 -17.572,34.404 -13.861,11.196 -31.563,18.765 -53.108,22.7 C 128.411,93.521 109.176,92.7 92.258,87.127 75.333,81.553 65.801,72.896 63.657,61.158 61.512,49.416 67.367,37.948 81.228,26.753 95.083,15.556 112.786,7.991 134.337,4.054 c 21.545,-3.936 40.779,-3.119 57.704,2.455 16.918,5.572 26.456,14.228 28.601,25.97 z"
                   style="fill:none;stroke:#848484;stroke-width:3.706;stroke-linecap:butt;stroke-linejoin:miter;stroke-miterlimit:10;stroke-dasharray:none;stroke-opacity:1"
                   id="path176" />
              </g>
              <g
                 id="g190">
                <g
                   id="g180" />
                <g
                   id="g188">
                  <g
                     clip-path="url(#clipPath50)"
                     id="g186">
                    <g
                       transform="translate(670.5946,675.6288)"
                       id="g184">
                      <path
                         d="M 0,0 104.517,-19.094 68.086,-218.511 -36.431,-199.418 Z"
                         style="fill:none;stroke:#848484;stroke-width:3.706;stroke-linecap:butt;stroke-linejoin:miter;stroke-miterlimit:10;stroke-dasharray:none;stroke-opacity:1"
                         id="path182" />
                    </g>
                  </g>
                </g>
              </g>
              <g
                 transform="translate(291.4677,561.9624)"
                 id="g194">
                <path
                   d="m 0,0 c -33.388,27.548 -47.8,56.438 -42.758,86.854 5.041,30.413 28,53.11 68.495,68.414 40.488,15.301 86.758,18.769 139.2,10.076 52.435,-8.691 95.115,-26.902 128.503,-54.451 33.388,-27.548 47.8,-56.442 42.758,-86.854 C 331.157,-6.377 308.19,-29.074 267.703,-44.374 227.208,-59.678 180.939,-63.142 128.503,-54.451 76.062,-45.758 33.389,-27.548 0,0 Z m 227.987,41.976 c 2.145,12.938 -3.989,25.35 -18.387,37.233 -14.405,11.882 -32.76,19.675 -55.067,23.373 C 132.22,106.28 112.332,104.826 94.87,98.227 77.401,91.625 67.598,81.855 65.453,68.917 63.308,55.976 69.435,43.565 83.84,31.684 98.238,19.8 116.594,12.01 138.907,8.312 c 22.306,-3.698 42.194,-2.247 59.662,4.354 17.462,6.599 27.273,16.368 29.418,29.31 z"
                   style="fill:none;stroke:#787878;stroke-width:3.824;stroke-linecap:butt;stroke-linejoin:miter;stroke-miterlimit:10;stroke-dasharray:none;stroke-opacity:1"
                   id="path192" />
              </g>
              <g
                 id="g206">
                <g
                   id="g196" />
                <g
                   id="g204">
                  <g
                     clip-path="url(#clipPath54)"
                     id="g202">
                    <g
                       transform="translate(671.2661,691.6912)"
                       id="g200">
                      <path
                         d="M 0,0 108.211,-17.937 71.778,-237.732 -36.433,-219.795 Z"
                         style="fill:none;stroke:#787878;stroke-width:3.824;stroke-linecap:butt;stroke-linejoin:miter;stroke-miterlimit:10;stroke-dasharray:none;stroke-opacity:1"
                         id="path198" />
                    </g>
                  </g>
                </g>
              </g>
              <g
                 transform="translate(282.5101,556.0077)"
                 id="g210">
                <path
                   d="m 0,0 c -34.646,29.189 -49.728,60.362 -44.758,93.734 4.97,33.369 28.478,58.797 70.129,76.625 41.644,17.825 89.341,22.88 143.496,14.815 54.148,-8.064 98.306,-26.796 132.952,-55.985 34.645,-29.188 49.728,-60.366 44.758,-93.735 C 341.607,2.082 318.091,-23.345 276.448,-41.17 234.797,-58.999 187.1,-64.049 132.952,-55.985 78.797,-47.92 34.646,-29.189 0,0 Z m 234.831,52.096 c 2.114,14.196 -4.307,27.59 -19.247,40.182 -14.947,12.588 -33.938,20.602 -56.973,24.033 -23.041,3.431 -43.543,1.299 -61.504,-6.389 C 79.139,102.231 69.102,91.288 66.988,77.092 64.873,62.893 71.286,49.499 86.234,36.911 101.175,24.319 120.166,16.31 143.208,12.878 c 23.035,-3.43 43.535,-1.302 61.503,6.389 17.96,7.687 28.005,18.63 30.12,32.829 z"
                   style="fill:none;stroke:#6c6c6c;stroke-width:3.941;stroke-linecap:butt;stroke-linejoin:miter;stroke-miterlimit:10;stroke-dasharray:none;stroke-opacity:1"
                   id="path208" />
              </g>
              <g
                 id="g222">
                <g
                   id="g212" />
                <g
                   id="g220">
                  <g
                     clip-path="url(#clipPath58)"
                     id="g218">
                    <g
                       transform="translate(671.4811,708.402)"
                       id="g216">
                      <path
                         d="M 0,0 111.746,-16.642 75.831,-257.8 -35.915,-241.158 Z"
                         style="fill:none;stroke:#6c6c6c;stroke-width:3.941;stroke-linecap:butt;stroke-linejoin:miter;stroke-miterlimit:10;stroke-dasharray:none;stroke-opacity:1"
                         id="path214" />
                    </g>
                  </g>
                </g>
              </g>
              <g
                 transform="translate(274.0331,549.4978)"
                 id="g226">
                <path
                   d="m 0,0 c -35.902,30.879 -51.695,64.428 -46.875,100.892 4.819,36.459 28.782,64.756 71.478,85.248 42.689,20.49 91.718,27.232 147.507,19.858 55.781,-7.373 101.38,-26.62 137.282,-57.5 35.902,-30.879 51.695,-64.432 46.876,-100.892 -4.82,-36.464 -28.791,-64.759 -71.479,-85.248 C 242.093,-58.135 193.064,-64.872 137.282,-57.5 81.493,-50.126 35.903,-30.88 0,0 Z m 241.15,62.822 c 2.05,15.51 -4.674,29.927 -20.156,43.248 -15.49,13.318 -35.099,21.55 -58.829,24.686 -23.737,3.138 -44.812,0.283 -63.223,-8.554 -18.419,-8.84 -28.65,-21.016 -30.7,-36.526 -2.05,-15.515 4.666,-29.931 20.156,-43.248 15.482,-13.321 35.092,-21.548 58.829,-24.686 23.73,-3.136 44.804,-0.286 63.222,8.554 18.411,8.836 28.65,21.011 30.701,36.526 z"
                   style="fill:none;stroke:#606060;stroke-width:4.059;stroke-linecap:butt;stroke-linejoin:miter;stroke-miterlimit:10;stroke-dasharray:none;stroke-opacity:1"
                   id="path224" />
              </g>
              <g
                 id="g238">
                <g
                   id="g228" />
                <g
                   id="g236">
                  <g
                     clip-path="url(#clipPath62)"
                     id="g234">
                    <g
                       transform="translate(671.2114,725.7475)"
                       id="g232">
                      <path
                         d="M 0,0 115.118,-15.216 80.29,-278.713 -34.828,-263.498 Z"
                         style="fill:none;stroke:#606060;stroke-width:4.059;stroke-linecap:butt;stroke-linejoin:miter;stroke-miterlimit:10;stroke-dasharray:none;stroke-opacity:1"
                         id="path230" />
                    </g>
                  </g>
                </g>
              </g>
              <g
                 transform="translate(266.0593,542.4494)"
                 id="g242">
                <path
                   d="m 0,0 c -37.162,32.622 -53.708,68.637 -49.124,108.326 4.583,39.684 28.9,70.983 72.524,94.277 43.616,23.29 93.879,31.818 151.221,25.196 57.334,-6.622 104.334,-26.382 141.496,-59.004 37.162,-32.621 53.708,-68.642 49.125,-108.326 C 360.658,20.78 336.333,-10.518 292.717,-33.808 249.093,-57.102 198.831,-65.625 141.496,-59.003 84.155,-52.38 37.163,-32.622 0,0 Z m 246.919,74.135 c 1.95,16.882 -5.096,32.36 -21.122,46.433 -16.033,14.069 -36.245,22.517 -60.635,25.334 -24.398,2.818 -46.003,-0.8 -64.814,-10.845 -18.819,-10.049 -29.2,-23.514 -31.15,-40.396 -1.95,-16.887 5.087,-32.365 21.121,-46.434 16.026,-14.073 36.238,-22.516 60.636,-25.334 24.39,-2.817 45.995,0.797 64.813,10.845 18.812,10.045 29.201,23.51 31.151,40.397 z"
                   style="fill:none;stroke:#545454;stroke-width:4.176;stroke-linecap:butt;stroke-linejoin:miter;stroke-miterlimit:10;stroke-dasharray:none;stroke-opacity:1"
                   id="path240" />
              </g>
              <g
                 id="g254">
                <g
                   id="g244" />
                <g
                   id="g252">
                  <g
                     clip-path="url(#clipPath66)"
                     id="g250">
                    <g
                       transform="translate(670.4292,743.7131)"
                       id="g248">
                      <path
                         d="M 0,0 118.323,-13.666 85.198,-300.468 -33.124,-286.802 Z"
                         style="fill:none;stroke:#545454;stroke-width:4.176;stroke-linecap:butt;stroke-linejoin:miter;stroke-miterlimit:10;stroke-dasharray:none;stroke-opacity:1"
                         id="path246" />
                    </g>
                  </g>
                </g>
              </g>
              <g
                 transform="translate(258.6109,534.8799)"
                 id="g258">
                <path
                   d="m 0,0 c -38.429,34.417 -55.776,72.992 -51.52,116.037 4.256,43.041 28.818,77.474 73.248,103.701 44.421,26.223 95.814,36.633 154.627,30.817 58.804,-5.814 107.168,-26.085 145.597,-60.503 38.428,-34.417 55.776,-72.997 51.52,-116.038 C 369.216,30.969 344.645,-3.464 300.224,-29.686 255.794,-55.914 204.402,-66.318 145.597,-60.503 86.785,-54.688 38.429,-34.418 0,0 Z m 252.115,86.014 c 1.811,18.31 -5.578,34.889 -22.15,49.737 -16.58,14.844 -37.377,23.508 -62.393,25.981 -25.024,2.475 -47.115,-1.948 -66.274,-13.258 C 82.132,137.16 71.647,122.348 69.837,104.038 68.026,85.723 75.406,69.144 91.986,54.3 108.559,39.453 129.357,30.794 154.38,28.32 c 25.016,-2.474 47.107,1.944 66.273,13.258 19.158,11.309 29.651,26.121 31.462,44.436 z"
                   style="fill:none;stroke:#484848;stroke-width:4.294;stroke-linecap:butt;stroke-linejoin:miter;stroke-miterlimit:10;stroke-dasharray:none;stroke-opacity:1"
                   id="path256" />
              </g>
              <g
                 id="g270">
                <g
                   id="g260" />
                <g
                   id="g268">
                  <g
                     clip-path="url(#clipPath70)"
                     id="g266">
                    <g
                       transform="translate(669.1068,762.2831)"
                       id="g264">
                      <path
                         d="m 0,0 121.357,-12 -30.758,-311.058 -121.356,12 z"
                         style="fill:none;stroke:#484848;stroke-width:4.294;stroke-linecap:butt;stroke-linejoin:miter;stroke-miterlimit:10;stroke-dasharray:none;stroke-opacity:1"
                         id="path262" />
                    </g>
                  </g>
                </g>
              </g>
              <g
                 transform="translate(251.7096,526.8071)"
                 id="g274">
                <path
                   d="m 0,0 c -39.706,36.268 -57.908,77.492 -54.078,124.024 3.83,46.526 28.525,84.223 73.632,113.512 45.098,29.284 97.515,41.665 157.714,36.71 60.191,-4.955 109.882,-25.739 149.588,-62.007 39.705,-36.267 57.908,-77.498 54.078,-124.024 C 377.103,41.683 352.399,3.987 307.302,-25.297 262.196,-54.586 209.779,-66.961 149.588,-62.007 89.389,-57.051 39.706,-36.268 0,0 Z m 256.716,98.44 c 1.629,19.793 -6.126,37.513 -23.249,53.159 -17.13,15.642 -38.498,24.522 -64.103,26.63 -25.614,2.108 -48.146,-3.158 -67.596,-15.788 C 82.309,149.806 71.769,133.592 70.14,113.799 68.51,94 76.257,76.281 93.388,60.639 c 17.122,-15.645 38.49,-24.52 64.104,-26.628 25.606,-2.108 48.137,3.152 67.595,15.787 19.45,12.63 29.999,28.844 31.629,48.642 z"
                   style="fill:none;stroke:#3c3c3c;stroke-width:4.412;stroke-linecap:butt;stroke-linejoin:miter;stroke-miterlimit:10;stroke-dasharray:none;stroke-opacity:1"
                   id="path272" />
              </g>
              <g
                 id="g286">
                <g
                   id="g276" />
                <g
                   id="g284">
                  <g
                     clip-path="url(#clipPath74)"
                     id="g282">
                    <g
                       transform="translate(667.2174,781.4414)"
                       id="g280">
                      <path
                         d="M 0,0 124.218,-10.225 96.538,-346.478 -27.68,-336.252 Z"
                         style="fill:none;stroke:#3c3c3c;stroke-width:4.412;stroke-linecap:butt;stroke-linejoin:miter;stroke-miterlimit:10;stroke-dasharray:none;stroke-opacity:1"
                         id="path278" />
                    </g>
                  </g>
                </g>
              </g>
              <g
                 transform="translate(245.3764,518.2498)"
                 id="g290">
                <path
                   d="m 0,0 c -40.996,38.173 -60.112,82.138 -56.812,132.285 3.299,50.14 28.007,91.225 73.656,123.7 45.641,32.469 98.972,46.909 160.472,42.862 61.492,-4.046 112.476,-25.347 153.472,-63.52 40.996,-38.173 60.113,-82.145 56.813,-132.285 C 384.302,52.896 359.584,11.811 313.944,-20.658 268.295,-53.134 214.964,-67.567 153.472,-63.521 91.972,-59.474 40.997,-38.174 0,0 Z m 260.698,111.392 c 1.404,21.33 -6.743,40.23 -24.422,56.698 -17.687,16.463 -39.61,25.562 -65.769,27.283 -26.167,1.722 -49.093,-4.425 -68.777,-18.429 -19.693,-14.01 -30.237,-31.68 -31.64,-53.01 -1.404,-21.336 6.734,-40.235 24.421,-56.698 17.679,-16.468 39.603,-25.56 65.77,-27.282 26.159,-1.721 49.084,4.42 68.776,18.429 19.684,14.003 30.237,31.673 31.641,53.009 z"
                   style="fill:none;stroke:#303030;stroke-width:4.529;stroke-linecap:butt;stroke-linejoin:miter;stroke-miterlimit:10;stroke-dasharray:none;stroke-opacity:1"
                   id="path288" />
              </g>
              <g
                 id="g302">
                <g
                   id="g292" />
                <g
                   id="g300">
                  <g
                     clip-path="url(#clipPath78)"
                     id="g298">
                    <g
                       transform="translate(664.7342,801.1706)"
                       id="g296">
                      <path
                         d="m 0,0 126.903,-8.35 -23.844,-362.369 -126.903,8.351 z"
                         style="fill:none;stroke:#303030;stroke-width:4.529;stroke-linecap:butt;stroke-linejoin:miter;stroke-miterlimit:10;stroke-dasharray:none;stroke-opacity:1"
                         id="path294" />
                    </g>
                  </g>
                </g>
              </g>
              <g
                 transform="translate(239.6321,509.2272)"
                 id="g306">
                <path
                   d="m 0,0 c -42.304,40.135 -62.397,86.931 -59.739,140.817 2.657,53.878 27.254,98.474 73.306,134.255 46.043,35.775 100.176,52.357 162.89,49.264 62.706,-3.093 114.949,-24.917 157.253,-65.053 42.303,-40.135 62.397,-86.939 59.74,-140.817 C 390.792,64.58 366.186,19.985 320.143,-15.789 274.091,-51.571 219.959,-68.145 157.253,-65.053 94.538,-61.96 42.304,-40.136 0,0 Z m 264.041,124.848 c 1.131,22.921 -7.435,43.039 -25.678,60.354 -18.251,17.309 -40.714,26.628 -67.39,27.943 -26.683,1.316 -49.955,-5.747 -69.813,-21.176 -19.867,-15.436 -30.361,-34.614 -31.491,-57.534 -1.131,-22.928 7.425,-43.046 25.677,-60.354 18.243,-17.315 40.707,-26.627 67.391,-27.943 26.675,-1.316 49.946,5.74 69.812,21.176 19.858,15.429 30.361,34.607 31.492,57.534 z"
                   style="fill:none;stroke:#242424;stroke-width:4.647;stroke-linecap:butt;stroke-linejoin:miter;stroke-miterlimit:10;stroke-dasharray:none;stroke-opacity:1"
                   id="path304" />
              </g>
              <g
                 id="g318">
                <g
                   id="g308" />
                <g
                   id="g316">
                  <g
                     clip-path="url(#clipPath82)"
                     id="g314">
                    <g
                       transform="translate(661.631,821.4527)"
                       id="g312">
                      <path
                         d="m 0,0 129.409,-6.382 -19.205,-389.389 -129.409,6.383 z"
                         style="fill:none;stroke:#242424;stroke-width:4.647;stroke-linecap:butt;stroke-linejoin:miter;stroke-miterlimit:10;stroke-dasharray:none;stroke-opacity:1"
                         id="path310" />
                    </g>
                  </g>
                </g>
              </g>
              <g
                 transform="translate(234.4966,499.7593)"
                 id="g322">
                <path
                   d="m 0,0 c -43.632,42.155 -64.771,91.871 -62.873,149.618 1.897,57.74 26.251,105.965 72.561,145.167 46.302,39.196 101.119,57.997 164.96,55.899 63.833,-2.098 117.301,-24.454 160.934,-66.609 43.632,-42.154 64.772,-91.879 62.874,-149.619 C 396.558,76.709 372.195,28.484 325.894,-10.711 279.583,-49.914 224.766,-68.707 160.934,-66.609 97.093,-64.511 43.633,-42.155 0,0 Z m 266.723,138.786 c 0.807,24.563 -8.207,45.938 -27.023,64.124 -18.824,18.18 -41.813,27.723 -68.968,28.616 -27.163,0.892 -50.729,-7.121 -70.699,-24.026 C 80.055,190.589 69.666,169.852 68.859,145.289 68.052,120.718 77.056,99.343 95.881,81.164 114.697,62.978 137.687,53.442 164.85,52.549 c 27.155,-0.892 50.721,7.114 70.698,24.025 19.97,16.904 30.368,37.641 31.175,62.212 z"
                   style="fill:none;stroke:#181818;stroke-width:4.765;stroke-linecap:butt;stroke-linejoin:miter;stroke-miterlimit:10;stroke-dasharray:none;stroke-opacity:1"
                   id="path320" />
              </g>
              <g
                 id="g334">
                <g
                   id="g324" />
                <g
                   id="g332">
                  <g
                     clip-path="url(#clipPath86)"
                     id="g330">
                    <g
                       transform="translate(657.8823,842.2687)"
                       id="g328">
                      <path
                         d="m 0,0 131.733,-4.329 -13.714,-417.294 -131.733,4.329 z"
                         style="fill:none;stroke:#181818;stroke-width:4.765;stroke-linecap:butt;stroke-linejoin:miter;stroke-miterlimit:10;stroke-dasharray:none;stroke-opacity:1"
                         id="path326" />
                    </g>
                  </g>
                </g>
              </g>
              <g
                 transform="translate(229.9896,489.8666)"
                 id="g338">
                <path
                   d="m 0,0 c -44.986,44.232 -67.244,96.956 -66.23,158.685 1.014,61.721 24.988,113.69 71.407,156.424 46.41,42.727 101.792,63.823 166.671,62.757 64.87,-1.066 119.533,-23.965 164.52,-68.198 44.985,-44.231 67.244,-96.964 66.23,-158.685 C 401.584,89.254 377.6,37.285 331.191,-5.441 284.772,-48.176 229.39,-69.263 164.52,-68.198 99.641,-67.132 44.987,-44.233 0,0 Z m 268.724,153.182 c 0.431,26.257 -9.063,48.927 -28.463,68.009 -19.408,19.076 -42.91,28.848 -70.506,29.301 -27.604,0.453 -51.415,-8.541 -71.431,-26.969 -20.025,-18.435 -30.249,-40.781 -30.68,-67.037 -0.432,-26.265 9.053,-48.935 28.461,-68.01 19.4,-19.082 42.903,-28.846 70.507,-29.3 27.596,-0.453 51.407,8.534 71.431,26.969 20.016,18.427 30.249,40.773 30.681,67.037 z"
                   style="fill:none;stroke:#0c0c0c;stroke-width:4.882;stroke-linecap:butt;stroke-linejoin:miter;stroke-miterlimit:10;stroke-dasharray:none;stroke-opacity:1"
                   id="path336" />
              </g>
              <g
                 id="g350">
                <g
                   id="g340" />
                <g
                   id="g348">
                  <g
                     clip-path="url(#clipPath90)"
                     id="g346">
                    <g
                       transform="translate(653.4627,863.5989)"
                       id="g344">
                      <path
                         d="m 0,0 133.874,-2.199 -7.328,-446.064 -133.874,2.199 z"
                         style="fill:none;stroke:#0c0c0c;stroke-width:4.882;stroke-linecap:butt;stroke-linejoin:miter;stroke-miterlimit:10;stroke-dasharray:none;stroke-opacity:1"
                         id="path342" />
                    </g>
                  </g>
                </g>
              </g>
              <g
                 id="g364">
                <g
                   id="g352" />
                <g
                   id="g362">
                  <g
                     clip-path="url(#clipPath94)"
                     id="g360">
                    <g
                       transform="translate(466.1504,575.5781)"
                       id="g356">
                      <path
                         d="m 0,0 c -20.005,-20.004 -44.007,-30.002 -72.006,-30.002 -28.008,0 -52.01,9.998 -72.006,30.002 -20.005,19.996 -30.003,43.998 -30.003,72.006 0,28 9.998,52.002 30.003,72.006 19.996,19.996 43.998,30.003 72.006,30.003 27.999,0 52.001,-10.007 72.006,-30.003 C 19.996,124.008 30.003,100.006 30.003,72.006 30.003,43.998 19.996,19.996 0,0 Z m -72.006,-165.832 c 65.818,0 121.825,23.269 168.014,69.824 46.547,46.18 69.824,102.188 69.824,168.014 0,65.818 -23.277,121.826 -69.824,168.015 -46.189,46.546 -102.196,69.824 -168.014,69.824 -65.827,0 -121.834,-23.278 -168.015,-69.824 -46.555,-46.189 -69.823,-102.197 -69.823,-168.015 0,-65.826 23.268,-121.834 69.823,-168.014 46.181,-46.555 102.188,-69.824 168.015,-69.824 z"
                         style="fill:none;stroke:#000000;stroke-width:5;stroke-linecap:butt;stroke-linejoin:miter;stroke-miterlimit:10;stroke-dasharray:none;stroke-opacity:1"
                         id="path354" />
                    </g>
                    <path
                       d="m 648.348,885.423 h 135.83 V 409.746 h -135.83 z"
                       style="fill:none;stroke:#000000;stroke-width:5;stroke-linecap:butt;stroke-linejoin:miter;stroke-miterlimit:10;stroke-dasharray:none;stroke-opacity:1"
                       id="path358" />
                  </g>
                </g>
              </g>
            </g>
          </g>
        </g>
      </g>
    </g>
    <g
       id="g370"
       transform="translate(266.3804,332.5098)">
      <path
         d="M 0,0 V 17.815 H -53.43 V -62.182 H 0 v 17.815 h -30.21 v 14.411 h 26.656 v 16.907 H -30.21 V 0 Z"
         style="fill:none;stroke:#000000;stroke-width:5;stroke-linecap:butt;stroke-linejoin:miter;stroke-miterlimit:10;stroke-dasharray:none;stroke-opacity:1"
         id="path372" />
    </g>
    <g
       id="g374"
       transform="translate(363.6431,350.3252)">
      <path
         d="M 0,0 H -23.22 V -45.275 L -54.141,0 H -77.36 v -79.997 h 23.219 V -35.29 L -23.22,-79.997 H 0 Z"
         style="fill:none;stroke:#000000;stroke-width:5;stroke-linecap:butt;stroke-linejoin:miter;stroke-miterlimit:10;stroke-dasharray:none;stroke-opacity:1"
         id="path376" />
    </g>
    <g
       id="g378">
      <g
         id="g380"
         clip-path="url(#clipPath384)">
        <g
           id="g386"
           transform="translate(418.3755,350.3252)">
          <path
             d="M 0,0 H -33.053 V -79.997 H 0 c 8.687,0 16.329,1.72 22.924,5.163 6.594,3.441 11.687,8.188 15.283,14.24 3.592,6.052 5.39,12.936 5.39,20.652 0,7.791 -1.777,14.713 -5.331,20.765 -3.555,6.051 -8.63,10.76 -15.224,14.127 C 16.447,-1.685 8.767,0 0,0 Z m -1.777,-60.366 h -8.056 v 41.076 h 8.056 c 6.792,0 12.123,-1.798 15.993,-5.391 3.869,-3.593 5.805,-8.679 5.805,-15.261 0,-6.507 -1.936,-11.537 -5.805,-15.091 -3.87,-3.557 -9.201,-5.333 -15.993,-5.333 z"
             style="fill:none;stroke:#000000;stroke-width:5;stroke-linecap:butt;stroke-linejoin:miter;stroke-miterlimit:10;stroke-dasharray:none;stroke-opacity:1"
             id="path388" />
        </g>
        <g
           id="g390"
           transform="translate(504.0293,350.3252)">
          <path
             d="m 0,0 h -23.22 v -79.997 h 49.164 v 17.02 l -25.944,0 z"
             style="fill:none;stroke:#000000;stroke-width:5;stroke-linecap:butt;stroke-linejoin:miter;stroke-miterlimit:10;stroke-dasharray:none;stroke-opacity:1"
             id="path392" />
        </g>
        <g
           id="g394"
           transform="translate(600.8174,332.5098)">
          <path
             d="M 0,0 V 17.815 H -53.43 V -62.182 H 0 v 17.815 h -30.209 v 14.411 h 26.655 v 16.907 H -30.209 V 0 Z"
             style="fill:none;stroke:#000000;stroke-width:5;stroke-linecap:butt;stroke-linejoin:miter;stroke-miterlimit:10;stroke-dasharray:none;stroke-opacity:1"
             id="path396" />
        </g>
        <g
           id="g398"
           transform="translate(652.2344,269.5342)">
          <path
             d="m 0,0 c 6.396,0 11.944,1.096 16.645,3.29 4.698,2.193 8.292,5.181 10.78,8.965 2.488,3.781 3.732,8.056 3.732,12.821 0,4.691 -1.244,8.568 -3.732,11.631 -2.488,3.064 -5.449,5.447 -8.885,7.149 -3.436,1.702 -7.801,3.422 -13.091,5.163 -3.553,1.21 -6.24,2.212 -8.055,3.007 -1.819,0.794 -3.338,1.74 -4.562,2.836 -1.226,1.096 -1.836,2.402 -1.836,3.915 0,1.816 0.552,3.215 1.658,4.199 1.106,0.982 2.528,1.475 4.265,1.475 2.29,0 4.165,-0.606 5.628,-1.815 1.46,-1.211 2.23,-3.027 2.309,-5.448 h 25.235 c -0.397,7.868 -3.495,13.975 -9.3,18.327 -5.805,4.348 -13.564,6.524 -23.279,6.524 -6.003,0 -11.373,-0.947 -16.112,-2.837 -4.739,-1.891 -8.452,-4.672 -11.136,-8.34 -2.686,-3.67 -4.028,-8.076 -4.028,-13.219 0,-5.069 1.243,-9.173 3.732,-12.312 2.487,-3.14 5.409,-5.522 8.766,-7.148 3.357,-1.628 7.76,-3.311 13.209,-5.05 5.134,-1.588 8.845,-3.027 11.137,-4.312 2.289,-1.287 3.436,-3.102 3.436,-5.446 0,-1.816 -0.693,-3.234 -2.074,-4.256 -1.382,-1.02 -3.139,-1.531 -5.272,-1.531 -2.369,0 -4.306,0.641 -5.805,1.929 -1.501,1.285 -2.369,3.328 -2.606,6.127 h -24.76 c 0.474,-8.247 3.83,-14.581 10.069,-19.006 C -17.693,2.212 -9.715,0 0,0 Z"
             style="fill:none;stroke:#000000;stroke-width:5;stroke-linecap:butt;stroke-linejoin:miter;stroke-miterlimit:10;stroke-dasharray:none;stroke-opacity:1"
             id="path400" />
        </g>
        <g
           id="g402"
           transform="translate(734.0957,269.5342)">
          <path
             d="m 0,0 c 6.396,0 11.944,1.096 16.645,3.29 4.698,2.193 8.292,5.181 10.78,8.965 2.488,3.781 3.732,8.056 3.732,12.821 0,4.691 -1.244,8.568 -3.732,11.631 -2.488,3.064 -5.449,5.447 -8.885,7.149 -3.436,1.702 -7.801,3.422 -13.091,5.163 -3.553,1.21 -6.24,2.212 -8.055,3.007 -1.819,0.794 -3.338,1.74 -4.562,2.836 -1.226,1.096 -1.836,2.402 -1.836,3.915 0,1.816 0.552,3.215 1.658,4.199 1.106,0.982 2.528,1.475 4.265,1.475 2.29,0 4.165,-0.606 5.628,-1.815 1.46,-1.211 2.23,-3.027 2.309,-5.448 h 25.235 c -0.397,7.868 -3.495,13.975 -9.3,18.327 -5.805,4.348 -13.564,6.524 -23.279,6.524 -6.003,0 -11.373,-0.947 -16.112,-2.837 -4.739,-1.891 -8.452,-4.672 -11.136,-8.34 -2.686,-3.67 -4.028,-8.076 -4.028,-13.219 0,-5.069 1.243,-9.173 3.732,-12.312 2.487,-3.14 5.409,-5.522 8.766,-7.148 3.357,-1.628 7.76,-3.311 13.209,-5.05 5.134,-1.588 8.845,-3.027 11.137,-4.312 2.289,-1.287 3.436,-3.102 3.436,-5.446 0,-1.816 -0.693,-3.234 -2.074,-4.256 -1.382,-1.02 -3.139,-1.531 -5.272,-1.531 -2.369,0 -4.306,0.641 -5.805,1.929 -1.501,1.285 -2.369,3.328 -2.606,6.127 h -24.76 c 0.474,-8.247 3.83,-14.581 10.069,-19.006 C -17.693,2.212 -9.715,0 0,0 Z"
             style="fill:none;stroke:#000000;stroke-width:5;stroke-linecap:butt;stroke-linejoin:miter;stroke-miterlimit:10;stroke-dasharray:none;stroke-opacity:1"
             id="path404" />
        </g>
        <text
           xml:space="preserve"
           transform="matrix(1,0,0,-0.95780853,203.3311,108.8877)"
           style="font-variant:normal;font-weight:800;font-stretch:normal;font-size:208.81px;font-family:'Poppins ExtraBold';-inkscape-font-specification:Poppins-ExtraBold;writing-mode:lr-tb;fill:#000000;fill-opacity:1;fill-rule:nonzero;stroke:none"
           id="text408"><tspan
             x="0 154.93703 316.13834 457.08508"
             y="0"
             sodipodi:role="line"
             id="tspan406">BYTE</tspan></text>
      </g>
    </g>
  </g>
</svg>
